<svg width="28" height="28" viewBox="0 0 28 28" fill="none" xmlns="http://www.w3.org/2000/svg">
<path d="M14.1429 17.2857C15.8787 17.2857 17.2857 15.8787 17.2857 14.1429C17.2857 12.4071 15.8787 11 14.1429 11C12.4071 11 11 12.4071 11 14.1429C11 15.8787 12.4071 17.2857 14.1429 17.2857Z" stroke="#28262D" stroke-width="2" stroke-linecap="round" stroke-linejoin="round"/>
<path d="M22.381 12.4286L20.8095 9.28571L22.9048 7.19048L20.8095 5.09524L18.7143 7.19048L15.5714 6.14286V3H12.4286V6.14286L9.28571 7.19048L7.19048 5.09524L5.09524 7.19048L7.19048 9.28571L5.09524 12.4286H3V15.5714H6.14286L7.19048 18.7143L5.09524 20.8095L7.19048 22.9048L9.28571 20.8095L12.4286 21.8571V25H15.5714V21.8571L18.7143 20.8095C19.2003 21.1569 20.8095 22.9048 20.8095 22.9048L22.9048 20.8095L20.8095 18.7143L21.8571 15.5714H25V12.4286H22.381Z" stroke="#28262D" stroke-width="2" stroke-linecap="round" stroke-linejoin="round"/>
</svg>
