<svg width="32" height="32" viewBox="0 0 32 32" fill="none" xmlns="http://www.w3.org/2000/svg">
<circle cx="16" cy="16" r="15.5" fill="#EA4A45" stroke="#EEEEEE"/>
<path fill-rule="evenodd" clip-rule="evenodd" d="M7.94539 8.79114C7.85748 8.49938 7.72346 8.05459 8.00001 8C8.12543 7.9775 8.66236 7.9057 9.40396 7.80653C11.0098 7.59181 13.5752 7.24876 15 7C15.7068 6.93321 17.188 7.44787 18 8C18.1022 8.06417 18.2346 8.12251 18.3831 8.18792C18.9558 8.44026 19.7671 8.79773 20 10C20.3495 9.96168 21.2324 9.72032 22.1071 9.4812C22.8585 9.27578 23.6039 9.07202 24 9C24.2256 9.7347 23.8121 11.5929 23 13C22.8878 13.1845 22.8296 13.4111 22.7641 13.6658C22.5926 14.3333 22.3713 15.1943 21 16C21.0461 16.0909 21.1612 16.3328 21.324 16.6748C21.9269 17.9414 23.183 20.5801 24 22L19 23L16 17V23C15.992 23.1304 15.8113 23.0904 15.5896 23.0412C15.395 22.9981 15.1687 22.948 15 23C14.6728 23.1009 12.0827 23.7996 11 24V12H8.00001V9C7.99474 8.9549 7.97221 8.88014 7.94539 8.79114ZM16 10V14C16.8454 13.8622 18.7933 13.0919 19 13C19.2583 12.8851 20.0704 12.4014 20 11C19.9486 9.97749 19.5107 9.9883 19.1134 9.99812C19.0751 9.99906 19.0372 10 19 10C18.9652 10 18.8676 9.99449 18.7265 9.98653C18.1058 9.95148 16.6442 9.86896 16 10Z" fill="white"/>
</svg>
