<svg width="22" height="25" viewBox="0 0 22 25" fill="none" xmlns="http://www.w3.org/2000/svg">
<path d="M18 9.26671C18 7.28643 17.2625 5.38726 15.9497 3.98699C14.637 2.58671 12.8565 1.80005 11 1.80005C9.14348 1.80005 7.36301 2.58671 6.05025 3.98699C4.7375 5.38726 4 7.28643 4 9.26671C4 14.7913 2.59229 17.2501 1.56239 18.3098C1.40265 18.4742 1.58695 19.0667 1.81615 19.0667H20.1838C20.4131 19.0667 20.5974 18.4742 20.4376 18.3098C19.4077 17.2501 18 14.7913 18 9.26671Z" stroke="#28262D" stroke-width="2" stroke-linecap="round" stroke-linejoin="round"/>
<path d="M13.0184 22.5667C12.8133 22.9203 12.5189 23.2138 12.1646 23.4177C11.8104 23.6218 11.4088 23.7292 11 23.7292C10.5912 23.7292 10.1897 23.6218 9.83546 23.4177C9.48126 23.2138 9.18679 22.9203 8.98169 22.5667" stroke="#28262D" stroke-width="2" stroke-linecap="round" stroke-linejoin="round"/>
</svg>
